<?xml version="1.0" encoding="UTF-8" standalone="no"?>
<svg width="128px" height="128px" viewBox="0 0 128 128" version="1.1" xmlns="http://www.w3.org/2000/svg" xmlns:xlink="http://www.w3.org/1999/xlink" xmlns:sketch="http://www.bohemiancoding.com/sketch/ns">
    <!-- Generator: Sketch 3.3.1 (12002) - http://www.bohemiancoding.com/sketch -->
    <title>icon</title>
    <desc>Created with Sketch.</desc>
    <defs></defs>
    <g id="Page-1" stroke="none" stroke-width="1" fill="none" fill-rule="evenodd" sketch:type="MSPage">
        <g id="icon" sketch:type="MSLayerGroup">
            <path d="M0,0 L0,113.6 L71,42.7 L80.8,52.5 L5.4,128 L128,128 L128,0 L0,0 Z" id="Shape" fill="#ECCDA5" sketch:type="MSShapeGroup"></path>
            <path d="M0,113.6 L0,128 L5.4,128 L80.8,52.5 L71,42.7 L0,113.6 Z" id="Shape" fill="#FFFFFF" sketch:type="MSShapeGroup"></path>
            <circle id="Oval" fill="#FF8226" sketch:type="MSShapeGroup" cx="103.7" cy="67" r="3.2"></circle>
            <circle id="Oval" fill="#C86715" sketch:type="MSShapeGroup" cx="83.4" cy="12.6" r="1.9"></circle>
            <circle id="Oval" fill="#FFFFFF" sketch:type="MSShapeGroup" cx="16.6" cy="33.3" r="3.3"></circle>
            <path d="M33,16.5 L37.9,14.5 L33,12.5 L31,7.6 L29.1,12.5 L24.1,14.5 L29.1,16.5 L31,21.4 L33,16.5 Z" id="Shape" fill="#FF8226" sketch:type="MSShapeGroup"></path>
            <path d="M117.1,41.1 L119.2,36.2 L114.3,38.3 L109.4,36.2 L111.5,41.1 L109.4,45.9 L114.3,43.8 L119.2,45.9 L117.1,41.1 Z M53,23.8 L54.6,20.3 L51,21.8 L47.5,20.3 L49,23.8 L47.5,27.4 L51,25.8 L54.6,27.4 L53,23.8 Z M115.2,88.9 L117.6,87.9 L115.2,87 L114.3,84.6 L113.4,87 L111,87.9 L113.4,88.9 L114.3,91.2 L115.2,88.9 Z" id="Shape" fill="#FFFFFF" sketch:type="MSShapeGroup"></path>
            <circle id="Oval" fill="#C86715" sketch:type="MSShapeGroup" cx="92.9" cy="109.5" r="6.4"></circle>
            <path d="M37.2,43.3 C22.9,43.3 9.9,48.7 0,57.6 L0,113.7 L63.7,50 C55.8,45.7 46.8,43.3 37.2,43.3 L37.2,43.3 Z M75.1,58.2 L5.4,128 L84.8,128 C90,119.5 93,109.6 93,99 C92.9,82.9 86.1,68.4 75.1,58.2 L75.1,58.2 Z" id="Shape" fill="#FFC100" sketch:type="MSShapeGroup"></path>
            <path d="M15,84.1 C17.9,84.3 21,84.4 23.7,85.2 C24.9,85.6 26.1,85.9 27.3,86.2 L45.5,68 C42.4,65.4 39.2,63 37.1,59.4 C34.3,54.6 33.3,48.7 34.3,43.3 C21.2,44 9.2,49.3 7.10542736e-15,57.6 L7.10542736e-15,85.6 C4.8,83.9 9.9,83.7 15,84.1 L15,84.1 Z M84.9,70.3 C83.5,71.8 82.2,73.4 81,75.2 C77.8,79.9 75.2,85.1 71,89 C63.7,95.8 53.9,96.2 44.5,95.3 C42.5,95.1 40.4,95 38.3,95.1 L22.1,111.3 C22.2,115.1 23.2,119 25.1,122.2 C26.3,124.3 27.8,126.2 29.5,128 L84.7,128 C89.9,119.5 92.9,109.6 92.9,99 C92.9,88.5 90,78.7 84.9,70.3 L84.9,70.3 Z" id="Shape" fill="#FF8226" sketch:type="MSShapeGroup"></path>
            <g id="Group" transform="translate(86.000000, 22.000000)" fill="#FFFFFF" sketch:type="MSShapeGroup">
                <path d="M1.3,4 L2,4.7 C2.7,5.4 3.8,5.4 4.5,4.7 L6.4,2.8 L3.7,0.2 L1.2,2.7 C0.9,3.1 0.9,3.7 1.3,4 L1.3,4 Z" id="Shape"></path>
            </g>
            <path d="M78.2,31.6 L66.5,43.3 L69.9,46.7 L72.6,49.4 L87.7,34.3 L85,31.6 C83.1,29.7 80.1,29.7 78.2,31.6 L78.2,31.6 Z" id="Shape" fill="#C86715" sketch:type="MSShapeGroup"></path>
            <path d="M109.8,14.5 C108.5,14.5 107.5,15.5 107.5,16.8 L107.5,18.3 L102,21.1 C99.1,22.5 96.7,24.7 94.9,27.3 L92.5,24.9 L90.6,26.8 C89.9,27.5 88.8,27.5 88.1,26.8 L87.3,26 C86.9,25.6 86.9,25.1 87.3,24.7 L89.8,22.2 C88.4,21.1 86.4,21.2 85.1,22.5 L80.6,27 L85.2,31.6 C82,32.3 79.2,34.5 77.8,37.5 L73,47.3 C69.2,48.7 66.1,51.9 64.8,55.9 L61,67.4 L60.2,67.8 C56.1,69.9 52.7,73.2 50.6,77.4 L47.7,83.3 L45.5,82.8 C44.6,82.6 43.6,83.1 43.4,84.1 L41.4,92.2 L45.2,88.4 L49.3,84.3 L49.7,83.9 L58.4,75.2 L71,62.4 L71.5,61.9 C72.2,62.4 72.9,62.8 73.7,63.1 L84.2,67.8 C81.4,68.3 78.7,69.3 76.3,70.8 L70.8,74.3 L69.3,72.8 C68.7,72.2 67.7,72.2 67.1,72.8 L61.4,78.5 L66.1,77.4 L83.4,73.2 L87.5,72.2 C88.3,72 89,71.6 89.6,71 C91.2,69.4 91.4,66.5 89.6,64.7 L79.1,54.4 L82.3,52 L94.8,52 C95.4,52 96,51.7 96.3,51.2 C96.5,50.9 96.6,50.5 96.6,50.1 L96.6,48.3 C96.6,47.7 96.1,47.3 95.6,47.3 L93.8,47.3 C92.8,47.3 91.9,48.1 91.9,49.2 L91.9,49.8 L88.4,48.6 L87.2,48.3 L88.6,47.3 C90.9,45.6 92.2,42.9 92.2,40.1 L92.2,35.5 L100.9,26.8 L107.4,20.3 L111.5,16.2 L113.3,14.4 L109.8,14.5 L109.8,14.5 Z M87.9,35 L87.9,34.9 L87.9,35 L87.9,35 Z" id="Shape" fill="#471305" sketch:type="MSShapeGroup"></path>
        </g>
    </g>
</svg>