<svg width="1544" height="470" viewBox="0 0 1544 470" xmlns="http://www.w3.org/2000/svg"><title>slimpack-bg-alt</title><g fill="none" fill-rule="evenodd"><path d="M1544 75.602V470H0V101.003c42.034.25 80.32 16.316 109.208 42.545C126.603 139.27 144.788 137 163.5 137c45.225 0 87.355 13.255 122.716 36.09C328.324 135.706 383.76 113 444.5 113c67.41 0 128.29 27.967 171.665 72.93C651.35 166.84 691.658 156 734.5 156c54.188 0 104.326 17.345 145.164 46.785C917.547 145.095 982.824 107 1057 107c90.866 0 168.38 57.167 198.54 137.497C1277.455 233.925 1302.035 228 1328 228c13.962 0 27.525 1.713 40.488 4.942 37.99-71 100.162-127.115 175.512-157.34z" fill="#FB7A1C"/><path d="M1254.5 11c3.038 0 5.5-2.462 5.5-5.5s-2.462-5.5-5.5-5.5-5.5 2.462-5.5 5.5 2.462 5.5 5.5 5.5zm27.5 299c10.493 0 19-8.507 19-19s-8.507-19-19-19-19 8.507-19 19 8.507 19 19 19z" fill="#C86715"/><path d="M914.5 237c5.247 0 9.5-4.253 9.5-9.5s-4.253-9.5-9.5-9.5-9.5 4.253-9.5 9.5 4.253 9.5 9.5 9.5zM467 320c10.493 0 19-8.507 19-19s-8.507-19-19-19-19 8.507-19 19 8.507 19 19 19zm118.5-196c10.217 0 18.5-8.283 18.5-18.5S595.717 87 585.5 87 567 95.283 567 105.5s8.283 18.5 18.5 18.5zm514.23 40.72l7.06-2.948-7.06-2.653-2.65-7.077-2.648 7.075-7.063 2.652 7.06 2.948 2.65 6.78 2.65-6.78zM1065.5 329c2.485 0 4.5-2.015 4.5-4.5s-2.015-4.5-4.5-4.5-4.5 2.015-4.5 4.5 2.015 4.5 4.5 4.5z" fill="#FFF"/><path d="M664.638 206.638L676 202l-11.362-4.638L660 186l-4.406 11.362L644 202l11.594 4.638L660 218l4.638-11.362zM695.5 396c19.606 0 35.5-15.894 35.5-35.5S715.106 325 695.5 325 660 340.894 660 360.5s15.894 35.5 35.5 35.5z" fill="#E36D09"/></g></svg>