<svg width="1544" height="479" viewBox="0 0 1544 479" xmlns="http://www.w3.org/2000/svg"><title>slimpack-bg</title><g fill="none" fill-rule="evenodd"><path d="M398.1 478.398c-9.692-3.958-18.916-8.825-27.566-14.496-2.193 4.927-4.557 9.762-7.083 14.496H0V109.4c42.034.252 80.32 16.316 109.208 42.546 17.394-4.28 35.578-6.548 54.292-6.548 68.426 0 129.765 30.342 171.296 78.305 29.81-35.638 74.61-58.305 124.704-58.305 47.618 0 90.452 20.48 120.173 53.115 42.468-33.87 96.283-54.115 154.827-54.115 54.188 0 104.326 17.344 145.164 46.785 37.883-57.69 103.16-95.785 177.336-95.785 90.866 0 168.38 57.167 198.54 137.497 21.916-10.572 46.496-16.497 72.46-16.497 13.962 0 27.525 1.713 40.488 4.94C1406.478 170.34 1468.65 114.226 1544 84v394.398H398.1z" fill="#F2761A"/><path d="M38.02 225.67C79.11 183.9 136.28 158 199.5 158c88.204 0 164.632 50.418 202.038 124.006 7.79-1.32 15.796-2.006 23.962-2.006 18.546 0 36.264 3.543 52.516 9.99C527.053 252.362 588.416 230 655 230c84.454 0 160.506 35.977 213.664 93.44C899.252 281.93 948.48 255 1004 255c58.278 0 109.626 29.674 139.757 74.738 19.4-15.483 43.99-24.738 70.743-24.738 32.857 0 62.454 13.962 83.18 36.277 60.06-70.086 147.824-115.73 246.32-119.956V479H0V221.003c13.094.078 25.825 1.69 38.02 4.668z" fill="#F9F9F9"/><path d="M1540 479H0V253c22.555-7.145 46.575-11 71.495-11 80.982 0 152.458 40.71 195.08 102.782C288.728 326.194 317.293 315 348.473 315c53.842 0 99.89 33.38 118.58 80.575C507.133 374.76 552.67 363 600.953 363c44.98 0 87.58 10.207 125.602 28.432C757.393 331.777 819.65 291 891.432 291c73.287 0 136.647 42.506 166.775 104.212C1078.657 375.28 1106.6 363 1137.413 363c38.935 0 73.29 19.608 93.733 49.49 34.98-24.27 77.454-38.49 123.25-38.49 78.78 0 147.733 42.084 185.604 105z" fill="#FFF"/><path d="M1254.5 20c3.038 0 5.5-2.462 5.5-5.5s-2.462-5.5-5.5-5.5-5.5 2.462-5.5 5.5 2.462 5.5 5.5 5.5zM664.638 215.638L676 211l-11.362-4.638L660 195l-4.406 11.362L644 211l11.594 4.638L660 227l4.638-11.362zM1282 319c10.493 0 19-8.507 19-19s-8.507-19-19-19-19 8.507-19 19 8.507 19 19 19z" fill="#C86715"/><path d="M914.5 246c5.247 0 9.5-4.253 9.5-9.5s-4.253-9.5-9.5-9.5-9.5 4.253-9.5 9.5 4.253 9.5 9.5 9.5zm-329-113c10.217 0 18.5-8.283 18.5-18.5S595.717 96 585.5 96s-18.5 8.283-18.5 18.5 8.283 18.5 18.5 18.5zm854.32 53.315l6.18-14.445-14.42 6.19-14.42-6.19 6.18 14.445-6.18 14.15 14.42-6.19 14.42 6.19-6.18-14.15zm-382.635-60.998l4.71-10.317-10.595 4.422L1041 115l4.414 10.317L1041 135.93l10.3-4.717 10.594 4.716-4.71-10.614zM1348.23 239.22l7.06-2.948-7.06-2.653-2.65-7.077-2.648 7.075-7.063 2.652 7.06 2.948 2.65 6.78 2.65-6.78z" fill="#FFF"/><path d="M1269.5 190c5.247 0 9.5-4.253 9.5-9.5s-4.253-9.5-9.5-9.5-9.5 4.253-9.5 9.5 4.253 9.5 9.5 9.5zM1106.442 26.442L1121 20.5l-14.558-5.942L1100.5 0l-5.645 14.558L1080 20.5l14.855 5.942L1100.5 41l5.942-14.558z" fill="#FFDF00"/><path d="M981 324.68V363h14.37L1196 162.08 1169.923 136 981 324.68z" fill="#FFF"/><path d="M1188.906 106.78L1158 137.818l8.98 9.02 7.133 7.162L1214 113.943l-7.132-7.163c-5.02-5.04-12.943-5.04-17.962 0z" fill="#C86715"/><path d="M1272.702 61.266c-3.453 0-6.11 2.66-6.11 6.12v3.99l-14.61 7.45c-7.704 3.725-14.08 9.58-18.86 16.497l-6.377-6.386-5.047 5.055c-1.86 1.863-4.78 1.863-6.64 0l-2.126-2.128c-1.063-1.065-1.063-2.395 0-3.46l6.64-6.65c-3.718-2.928-9.03-2.66-12.484.797l-11.954 11.975 12.22 12.24c-8.5 1.862-15.94 7.715-19.66 15.697l-12.75 26.076c-10.094 3.725-18.33 12.24-21.783 22.882l-10.092 30.597-2.125 1.065c-10.892 5.587-19.924 14.367-25.503 25.542l-7.704 15.698-5.844-1.33c-2.39-.532-5.048.798-5.58 3.46L1091 268l10.095-10.11 10.89-10.91 1.064-1.064 23.11-23.147 33.47-34.06 1.33-1.33c1.86 1.33 3.72 2.395 5.843 3.194l27.893 12.505c-7.438 1.33-14.61 3.99-20.986 7.98l-14.61 9.313-3.985-3.99c-1.593-1.597-4.25-1.597-5.844 0l-15.14 15.165 12.486-2.928 45.957-11.175 10.89-2.66c2.126-.533 3.986-1.597 5.58-3.193 4.25-4.257 4.78-11.973 0-16.762l-27.893-27.405 8.5-6.386h33.205c1.594 0 3.188-.798 3.985-2.128.53-.8.797-1.863.797-2.927v-4.79c0-1.596-1.328-2.66-2.656-2.66h-4.78c-2.657 0-5.047 2.13-5.047 5.055v1.598l-9.298-3.193-3.188-.798 3.72-2.66c6.11-4.524 9.563-11.708 9.563-19.158v-12.24l23.11-23.15 17.267-17.293 10.89-10.91L1282 61l-9.298.266zm-58.176 54.544v-.266.266z" fill="#471305"/></g></svg>