<svg width="1544" height="479" viewBox="0 0 1544 479" xmlns="http://www.w3.org/2000/svg"><title>slimpack-bg-alt</title><g fill="none" fill-rule="evenodd"><path d="M1544 84.602V479H0V110.003c42.034.25 80.32 16.316 109.208 42.545C126.603 148.27 144.788 146 163.5 146c45.225 0 87.355 13.255 122.716 36.09C328.324 144.706 383.76 122 444.5 122c67.41 0 128.29 27.967 171.665 72.93C651.35 175.84 691.658 165 734.5 165c54.188 0 104.326 17.345 145.164 46.785C917.547 154.095 982.824 116 1057 116c90.866 0 168.38 57.167 198.54 137.497C1277.455 242.925 1302.035 237 1328 237c13.962 0 27.525 1.713 40.488 4.942 37.99-71 100.162-127.115 175.512-157.34z" fill="#FB7A1C"/><path d="M1254.5 20c3.038 0 5.5-2.462 5.5-5.5s-2.462-5.5-5.5-5.5-5.5 2.462-5.5 5.5 2.462 5.5 5.5 5.5zm27.5 299c10.493 0 19-8.507 19-19s-8.507-19-19-19-19 8.507-19 19 8.507 19 19 19z" fill="#C86715"/><path d="M914.5 246c5.247 0 9.5-4.253 9.5-9.5s-4.253-9.5-9.5-9.5-9.5 4.253-9.5 9.5 4.253 9.5 9.5 9.5zM467 329c10.493 0 19-8.507 19-19s-8.507-19-19-19-19 8.507-19 19 8.507 19 19 19zm118.5-196c10.217 0 18.5-8.283 18.5-18.5S595.717 96 585.5 96s-18.5 8.283-18.5 18.5 8.283 18.5 18.5 18.5zm605.82-12.185l6.18-14.445-14.42 6.19-14.42-6.19 6.18 14.445-6.18 14.15 14.42-6.19 14.42 6.19-6.18-14.15zM808.685 59.817l4.71-10.317-10.595 4.422-10.3-4.422 4.414 10.317L792.5 70.43l10.3-4.717 10.594 4.716-4.71-10.614zM1099.73 173.72l7.06-2.948-7.06-2.653-2.65-7.077-2.648 7.075-7.063 2.652 7.06 2.948 2.65 6.78 2.65-6.78zM1065.5 338c2.485 0 4.5-2.015 4.5-4.5s-2.015-4.5-4.5-4.5-4.5 2.015-4.5 4.5 2.015 4.5 4.5 4.5z" fill="#FFF"/><path d="M1269.5 190c5.247 0 9.5-4.253 9.5-9.5s-4.253-9.5-9.5-9.5-9.5 4.253-9.5 9.5 4.253 9.5 9.5 9.5zM1106.442 26.442L1121 20.5l-14.558-5.942L1100.5 0l-5.645 14.558L1080 20.5l14.855 5.942L1100.5 41l5.942-14.558z" fill="#FFDF00"/><path d="M664.638 215.638L676 211l-11.362-4.638L660 195l-4.406 11.362L644 211l11.594 4.638L660 227l4.638-11.362zM695.5 405c19.606 0 35.5-15.894 35.5-35.5S715.106 334 695.5 334 660 349.894 660 369.5s15.894 35.5 35.5 35.5z" fill="#E36D09"/></g></svg>